<svg width="568" height="339" viewBox="0 0 568 339" fill="none" xmlns="http://www.w3.org/2000/svg">
<g clip-path="url(#clip0_51_2387)">
<rect width="568" height="339" fill="white"/>
<g clip-path="url(#clip1_51_2387)">
<path d="M279.898 170.023L291.59 512.773H268.207L279.898 170.023Z" fill="black" fill-opacity="0.05"/>
<path d="M279.899 169.773L268.207 -172.977H291.59L279.899 169.773Z" fill="black" fill-opacity="0.05"/>
<path d="M280.023 169.899L622.773 158.207V181.59L280.023 169.899Z" fill="black" fill-opacity="0.05"/>
<path d="M279.773 169.898L-62.9765 181.59V158.207L279.773 169.898Z" fill="black" fill-opacity="0.05"/>
<path d="M279.931 170.019L379.934 498.065L357.348 504.116L279.931 170.019Z" fill="black" fill-opacity="0.05"/>
<path d="M279.866 169.778L179.863 -158.267L202.449 -164.319L279.866 169.778Z" fill="black" fill-opacity="0.05"/>
<path d="M280.019 169.866L608.064 69.863L614.116 92.449L280.019 169.866Z" fill="black" fill-opacity="0.05"/>
<path d="M279.778 169.931L-48.2674 269.934L-54.3192 247.348L279.778 169.931Z" fill="black" fill-opacity="0.05"/>
<path d="M279.961 170.007L461.461 460.991L441.211 472.683L279.961 170.007Z" fill="black" fill-opacity="0.05"/>
<path d="M279.836 169.79L98.336 -121.195L118.586 -132.886L279.836 169.79Z" fill="black" fill-opacity="0.05"/>
<path d="M280.007 169.836L570.991 -11.6641L582.683 8.58594L280.007 169.836Z" fill="black" fill-opacity="0.05"/>
<path d="M279.79 169.961L-11.1943 351.461L-22.8856 331.211L279.79 169.961Z" fill="black" fill-opacity="0.05"/>
<path d="M280.007 169.961L582.683 331.211L570.991 351.461L280.007 169.961Z" fill="black" fill-opacity="0.05"/>
<path d="M279.79 169.836L-22.8856 8.58594L-11.1943 -11.6641L279.79 169.836Z" fill="black" fill-opacity="0.05"/>
<path d="M279.961 169.79L441.211 -132.886L461.461 -121.194L279.961 169.79Z" fill="black" fill-opacity="0.05"/>
<path d="M279.836 170.007L118.586 472.683L98.336 460.991L279.836 170.007Z" fill="black" fill-opacity="0.05"/>
<path d="M279.987 169.987L530.615 404.081L514.081 420.615L279.987 169.987Z" fill="black" fill-opacity="0.05"/>
<path d="M279.81 169.81L29.1822 -64.2838L45.7162 -80.8179L279.81 169.81Z" fill="black" fill-opacity="0.05"/>
<path d="M279.987 169.81L514.081 -80.8178L530.615 -64.2837L279.987 169.81Z" fill="black" fill-opacity="0.05"/>
<path d="M279.81 169.987L45.7163 420.615L29.1822 404.081L279.81 169.987Z" fill="black" fill-opacity="0.05"/>
<path d="M280.019 169.931L614.116 247.348L608.064 269.934L280.019 169.931Z" fill="black" fill-opacity="0.05"/>
<path d="M279.778 169.866L-54.3192 92.449L-48.2674 69.863L279.778 169.866Z" fill="black" fill-opacity="0.05"/>
<path d="M279.931 169.778L357.348 -164.319L379.934 -158.267L279.931 169.778Z" fill="black" fill-opacity="0.05"/>
<path d="M279.866 170.019L202.449 504.116L179.863 498.064L279.866 170.019Z" fill="black" fill-opacity="0.05"/>
<g filter="url(#filter0_b_51_2387)">
<rect width="568" height="338" fill="white" fill-opacity="0.1"/>
<rect x="0.5" y="0.5" width="567" height="337" stroke="black"/>
</g>
<path d="M80.8209 244C82.7082 248.688 86.3798 261.441 85.9681 274.943C85.4533 291.821 70.5265 294.634 70.0118 307.996C69.4971 321.358 85.9681 333.313 85.9681 344.565C85.9681 355.817 76.1884 370.585 74.6443 382.541" stroke="#2E2E2E" stroke-width="2" stroke-linecap="round"/>
<path d="M101.821 250C103.708 254.688 107.38 267.441 106.968 280.943C106.453 297.821 91.5265 300.634 91.0118 313.996C90.4971 327.358 106.968 339.313 106.968 350.565C106.968 361.817 97.1884 376.585 95.6443 388.541" stroke="#2E2E2E" stroke-width="2" stroke-linecap="round"/>
<path d="M100.233 184.468C106.193 201.163 94.9563 224.521 86.9818 235.046C84.1482 238.785 79.5447 240.506 75.0146 239.284C63.6987 236.232 46.635 225.293 39.394 203.333C34.445 188.324 41.292 170.281 61.7254 164.829C74.2176 161.169 92.8308 163.735 100.233 184.468Z" fill="#3DD598" stroke="black" stroke-width="2" stroke-linecap="round"/>
<path d="M118.745 158.434C120.714 176.052 104.414 196.207 94.2366 204.619C90.6202 207.609 85.7446 208.226 81.6161 205.997C71.303 200.429 57.2063 185.865 55.2002 162.829C53.8291 147.084 64.6354 131.096 85.7747 130.48C98.7736 129.786 116.3 136.556 118.745 158.434Z" fill="#FFC542" stroke="black" stroke-width="2" stroke-linecap="round"/>
<path d="M130.614 224.787C129.97 242.503 110.884 260.04 99.5794 266.865C95.5627 269.289 90.6493 269.183 86.8935 266.371C77.5117 259.346 65.7104 242.867 67.1144 219.787C68.074 204.012 81.1144 189.787 102.114 192.287C115.074 193.512 131.414 202.787 130.614 224.787Z" fill="#FF5592" stroke="black" stroke-width="2" stroke-linecap="round"/>
<path d="M92.5 269C94.3333 272.333 97.9 281.4 97.5 291C97 303 82.5 305 82 314.5C81.5 324 97.5 332.5 97.5 340.5C97.5 348.5 88 359 86.5 367.5C85.3 374.3 86 386.667 86.5 392" stroke="#2E2E2E" stroke-width="2" stroke-linecap="round"/>
<path d="M465.821 216C467.708 220.688 471.38 233.441 470.968 246.943C470.453 263.821 455.527 266.634 455.012 279.996C454.497 293.358 470.968 305.313 470.968 316.565C470.968 327.817 461.188 342.585 459.644 354.541" stroke="#2E2E2E" stroke-width="2" stroke-linecap="round"/>
<path d="M486.821 222C488.708 226.688 492.38 239.441 491.968 252.943C491.453 269.821 476.527 272.634 476.012 285.996C475.497 299.358 491.968 311.313 491.968 322.565C491.968 333.817 482.188 348.585 480.644 360.541" stroke="#2E2E2E" stroke-width="2" stroke-linecap="round"/>
<path d="M485.233 156.468C491.193 173.163 479.956 196.521 471.982 207.046C469.148 210.785 464.545 212.506 460.015 211.284C448.699 208.232 431.635 197.293 424.394 175.333C419.445 160.324 426.292 142.281 446.725 136.829C459.218 133.169 477.831 135.735 485.233 156.468Z" fill="#53B3CB" stroke="black" stroke-width="2" stroke-linecap="round"/>
<path d="M503.745 130.434C505.714 148.052 489.414 168.207 479.237 176.619C475.62 179.609 470.745 180.226 466.616 177.997C456.303 172.429 442.206 157.865 440.2 134.829C438.829 119.084 449.635 103.096 470.775 102.48C483.774 101.786 501.3 108.556 503.745 130.434Z" fill="#FF7F7F" stroke="black" stroke-width="2" stroke-linecap="round"/>
<path d="M515.614 196.787C514.97 214.503 495.884 232.04 484.579 238.865C480.563 241.289 475.649 241.183 471.894 238.371C462.512 231.346 450.71 214.867 452.114 191.787C453.074 176.012 466.114 161.787 487.114 164.287C500.074 165.512 516.414 174.787 515.614 196.787Z" fill="#3DD598" stroke="black" stroke-width="2" stroke-linecap="round"/>
<path d="M477.5 241C479.333 244.333 482.9 253.4 482.5 263C482 275 467.5 277 467 286.5C466.5 296 482.5 304.5 482.5 312.5C482.5 320.5 473 331 471.5 339.5C470.3 346.3 471 358.667 471.5 364" stroke="#2E2E2E" stroke-width="2" stroke-linecap="round"/>
<path d="M306 -2C317.548 3.97617 364.057 22.4064 450.5 24C536.943 25.5936 548.503 6.46624 565 0.490069" stroke="#777777" stroke-linecap="round"/>
<path d="M348.523 10.441C348.625 9.85837 349.139 9.46305 349.671 9.55802L373.827 13.8731C374.359 13.9681 374.707 14.5174 374.605 15.1L368.295 50.999C368.167 51.7301 367.415 52.1212 366.831 51.7609L356.201 45.2009C356.005 45.0796 355.773 45.0382 355.547 45.0841L343.329 47.5626C342.658 47.6988 342.085 47.0711 342.214 46.34L348.523 10.441Z" fill="black"/>
<path d="M346.571 10.0551C346.667 9.51125 347.186 9.14849 347.73 9.24481L372.437 13.6212C372.981 13.7175 373.344 14.2364 373.248 14.7802L367.313 48.2875C367.192 48.9698 366.43 49.3254 365.83 48.98L354.892 42.6921C354.69 42.5758 354.453 42.5339 354.223 42.5736L341.791 44.7221C341.108 44.8401 340.515 44.2447 340.636 43.5623L346.571 10.0551Z" fill="#FF5592"/>
<path d="M468.582 23.0617C468.545 22.4713 468.953 21.9667 469.492 21.9348L493.987 20.483C494.527 20.4511 494.993 20.9038 495.03 21.4942L497.288 57.8735C497.334 58.6143 496.694 59.1704 496.043 58.9565L484.173 55.0633C483.954 54.9913 483.719 55.0052 483.511 55.1026L472.21 60.369C471.589 60.6582 470.886 60.1818 470.84 59.4409L468.582 23.0617Z" fill="black"/>
<path d="M466.594 23.1428C466.56 22.5915 466.98 22.1175 467.531 22.084L492.577 20.563C493.128 20.5296 493.602 20.9493 493.636 21.5006L495.699 55.4668C495.741 56.1585 495.083 56.6822 494.419 56.4869L482.314 52.9302C482.09 52.8644 481.85 52.879 481.636 52.9714L470.051 57.9667C469.414 58.2411 468.699 57.8007 468.657 57.109L466.594 23.1428Z" fill="#3DD598"/>
<path d="M409.037 20.155C409.069 19.5643 409.532 19.1104 410.071 19.1412L434.57 20.5412C435.109 20.572 435.52 21.0759 435.488 21.6666L433.51 58.0621C433.47 58.8032 432.77 59.2814 432.148 58.9933L420.81 53.7494C420.601 53.6525 420.366 53.639 420.147 53.7115L408.312 57.6313C407.662 57.8466 407.019 57.2917 407.059 56.5505L409.037 20.155Z" fill="black"/>
<path d="M407.053 20.0049C407.084 19.4535 407.555 19.0313 408.107 19.062L433.16 20.457C433.711 20.4878 434.134 20.9597 434.103 21.5111L432.211 55.4873C432.172 56.1792 431.459 56.6231 430.821 56.3519L419.211 51.4149C418.996 51.3236 418.756 51.3103 418.533 51.3772L406.446 54.9947C405.782 55.1934 405.122 54.673 405.161 53.9811L407.053 20.0049Z" fill="#0062FF"/>
<path d="M522.238 16.0095C522.09 15.4367 522.394 14.864 522.917 14.7302L546.691 8.65094C547.214 8.51714 547.758 8.87294 547.907 9.44566L557.035 44.7333C557.221 45.4519 556.699 46.1193 556.018 46.0332L543.626 44.466C543.396 44.437 543.169 44.4952 542.982 44.6305L532.888 51.9479C532.334 52.3499 531.552 52.0157 531.366 51.2971L522.238 16.0095Z" fill="black"/>
<path d="M520.302 16.4667C520.164 15.9318 520.486 15.3867 521.021 15.2491L545.321 8.99731C545.856 8.8597 546.401 9.18175 546.539 9.71662L555.017 42.6723C555.19 43.3434 554.644 43.9824 553.955 43.917L541.395 42.7249C541.162 42.7028 540.93 42.7627 540.737 42.8941L530.312 49.9995C529.739 50.3898 528.953 50.0935 528.78 49.4224L520.302 16.4667Z" fill="#FFC542"/>
<path d="M1 -2C12.5478 3.97617 59.0567 22.4064 145.5 24C231.943 25.5936 243.503 6.46624 260 0.490069" stroke="#777777" stroke-linecap="round"/>
<path d="M31.5229 7.44101C31.6253 6.85837 32.1394 6.46305 32.671 6.55802L56.8273 10.8731C57.359 10.9681 57.707 11.5174 57.6046 12.1L51.2951 47.999C51.1667 48.7301 50.415 49.1212 49.8312 48.7609L39.2011 42.2009C39.0045 42.0796 38.7733 42.0382 38.5473 42.0841L26.3287 44.5626C25.6576 44.6988 25.085 44.0711 25.2135 43.34L31.5229 7.44101Z" fill="black"/>
<path d="M29.571 7.05507C29.6673 6.51125 30.1862 6.14849 30.7301 6.24481L55.4374 10.6212C55.9812 10.7175 56.344 11.2364 56.2476 11.7802L50.3126 45.2875C50.1917 45.9698 49.4303 46.3254 48.8295 45.98L37.8917 39.6921C37.6895 39.5758 37.4529 39.5339 37.223 39.5736L24.7909 41.7221C24.108 41.8401 23.5151 41.2447 23.6359 40.5623L29.571 7.05507Z" fill="#0062FF"/>
<path d="M153.582 23.0617C153.545 22.4713 153.953 21.9667 154.492 21.9348L178.987 20.483C179.527 20.4511 179.993 20.9038 180.03 21.4942L182.288 57.8735C182.334 58.6143 181.694 59.1704 181.043 58.9565L169.173 55.0633C168.954 54.9913 168.719 55.0052 168.51 55.1026L157.21 60.369C156.589 60.6582 155.886 60.1818 155.84 59.4409L153.582 23.0617Z" fill="black"/>
<path d="M151.594 23.1428C151.56 22.5915 151.98 22.1175 152.531 22.084L177.577 20.563C178.128 20.5296 178.602 20.9493 178.636 21.5006L180.699 55.4668C180.741 56.1585 180.083 56.6822 179.419 56.4869L167.314 52.9302C167.09 52.8644 166.85 52.879 166.636 52.9714L155.051 57.9667C154.414 58.2411 153.699 57.8007 153.657 57.109L151.594 23.1428Z" fill="#3DD598"/>
<path d="M93.0369 20.155C93.069 19.5643 93.5322 19.1104 94.0714 19.1412L118.57 20.5412C119.109 20.572 119.52 21.0759 119.488 21.6666L117.51 58.0621C117.47 58.8032 116.77 59.2814 116.148 58.9933L104.81 53.7494C104.601 53.6525 104.366 53.639 104.147 53.7115L92.3121 57.6313C91.6621 57.8466 91.0187 57.2917 91.0589 56.5505L93.0369 20.155Z" fill="black"/>
<path d="M91.0529 20.0049C91.0836 19.4535 91.5555 19.0313 92.1069 19.062L117.16 20.457C117.711 20.4878 118.134 20.9597 118.103 21.5111L116.211 55.4873C116.172 56.1792 115.459 56.6231 114.821 56.3519L103.211 51.4149C102.996 51.3236 102.756 51.3103 102.533 51.3772L90.4462 54.9947C89.7823 55.1934 89.1225 54.673 89.161 53.9811L91.0529 20.0049Z" fill="#FF5592"/>
<path d="M210.699 19.0095C210.55 18.4367 210.854 17.864 211.378 17.7302L235.151 11.6509C235.675 11.5171 236.219 11.8729 236.367 12.4457L245.496 47.7333C245.681 48.4519 245.159 49.1193 244.479 49.0332L232.086 47.466C231.857 47.437 231.629 47.4952 231.443 47.6305L221.348 54.9479C220.794 55.3499 220.013 55.0157 219.827 54.2971L210.699 19.0095Z" fill="black"/>
<path d="M208.762 19.4667C208.624 18.9318 208.946 18.3867 209.481 18.2491L233.782 11.9973C234.317 11.8597 234.862 12.1817 235 12.7166L243.478 45.6723C243.651 46.3434 243.105 46.9824 242.415 46.917L229.855 45.7249C229.623 45.7028 229.39 45.7627 229.197 45.8941L218.772 52.9995C218.199 53.3898 217.413 53.0935 217.24 52.4224L208.762 19.4667Z" fill="#FF7F7F"/>
</g>
</g>
<defs>
<filter id="filter0_b_51_2387" x="-10" y="-10" width="588" height="358" filterUnits="userSpaceOnUse" color-interpolation-filters="sRGB">
<feFlood flood-opacity="0" result="BackgroundImageFix"/>
<feGaussianBlur in="BackgroundImage" stdDeviation="5"/>
<feComposite in2="SourceAlpha" operator="in" result="effect1_backgroundBlur_51_2387"/>
<feBlend mode="normal" in="SourceGraphic" in2="effect1_backgroundBlur_51_2387" result="shape"/>
</filter>
<clipPath id="clip0_51_2387">
<rect width="568" height="339" fill="white"/>
</clipPath>
<clipPath id="clip1_51_2387">
<rect width="568" height="339" fill="white"/>
</clipPath>
</defs>
</svg>
