<svg id="eUgxSdWNFXY1" xmlns="http://www.w3.org/2000/svg" xmlns:xlink="http://www.w3.org/1999/xlink" viewBox="0 0 568 339" shape-rendering="geometricPrecision" text-rendering="geometricPrecision" style="background-color:transparent"><style><![CDATA[#eUgxSdWNFXY7_tr {animation: eUgxSdWNFXY7_tr__tr 3000ms linear infinite normal forwards}@keyframes eUgxSdWNFXY7_tr__tr { 0% {transform: translate(279.898255px,169.897995px) rotate(0deg)} 100% {transform: translate(279.898255px,169.897995px) rotate(30deg)}}]]></style><g clip-path="url(#eUgxSdWNFXY67)"><g><rect width="568" height="339" rx="0" ry="0" fill="#fff"/><g clip-path="url(#eUgxSdWNFXY65)"><g><g id="eUgxSdWNFXY7_tr" transform="translate(279.898255,169.897995) rotate(0)"><g transform="translate(-279.898254,-169.897995)"><path d="M279.898,170.023l11.692,342.75h-23.383l11.691-342.75Z" fill-opacity="0.05"/><path d="M279.899,169.773l-11.692-342.75h23.383l-11.691,342.75Z" fill-opacity="0.05"/><path d="M280.023,169.899l342.75-11.692v23.383l-342.75-11.691Z" fill-opacity="0.05"/><path d="M279.773,169.898L-62.9765,181.59v-23.383L279.773,169.898Z" fill-opacity="0.05"/><path d="M279.931,170.019L379.934,498.065l-22.586,6.051-77.417-334.097Z" fill-opacity="0.05"/><path d="M279.866,169.778L179.863,-158.267l22.586-6.052l77.417,334.097Z" fill-opacity="0.05"/><path d="M280.019,169.866L608.064,69.863l6.052,22.586-334.097,77.417Z" fill-opacity="0.05"/><path d="M279.778,169.931L-48.2674,269.934l-6.0518-22.586L279.778,169.931Z" fill-opacity="0.05"/><path d="M279.961,170.007l181.5,290.984-20.25,11.692-161.25-302.676Z" fill-opacity="0.05"/><path d="M279.836,169.79l-181.5-290.985l20.25-11.691L279.836,169.79Z" fill-opacity="0.05"/><path d="M280.007,169.836L570.991,-11.6641L582.683,8.58594L280.007,169.836Z" fill-opacity="0.05"/><path d="M279.79,169.961l-290.9843,181.5-11.6913-20.25L279.79,169.961Z" fill-opacity="0.05"/><path d="M280.007,169.961l302.676,161.25-11.692,20.25-290.984-181.5Z" fill-opacity="0.05"/><path d="M279.79,169.836L-22.8856,8.58594l11.6913-20.25004L279.79,169.836Z" fill-opacity="0.05"/><path d="M279.961,169.79l161.25-302.676l20.25,11.692-181.5,290.984Z" fill-opacity="0.05"/><path d="M279.836,170.007L118.586,472.683l-20.25-11.692l181.5-290.984Z" fill-opacity="0.05"/><path d="M279.987,169.987L530.615,404.081l-16.534,16.534L279.987,169.987Z" fill-opacity="0.05"/><path d="M279.81,169.81L29.1822,-64.2838l16.534-16.5341L279.81,169.81Z" fill-opacity="0.05"/><path d="M279.987,169.81L514.081,-80.8178l16.534,16.5341L279.987,169.81Z" fill-opacity="0.05"/><path d="M279.81,169.987L45.7163,420.615L29.1822,404.081L279.81,169.987Z" fill-opacity="0.05"/><path d="M280.019,169.931l334.097,77.417-6.052,22.586L280.019,169.931Z" fill-opacity="0.05"/><path d="M279.778,169.866L-54.3192,92.449l6.0518-22.586L279.778,169.866Z" fill-opacity="0.05"/><path d="M279.931,169.778l77.417-334.097l22.586,6.052L279.931,169.778Z" fill-opacity="0.05"/><path d="M279.866,170.019L202.449,504.116l-22.586-6.052L279.866,170.019Z" fill-opacity="0.05"/></g></g><g><rect width="568" height="338" rx="0" ry="0" fill="#fff" fill-opacity="0.1"/><rect width="567" height="337" rx="0" ry="0" transform="translate(.5 0.5)" fill="none" stroke="#000"/></g><path d="M80.8209,244c1.8873,4.688,5.5589,17.441,5.1472,30.943-.5148,16.878-15.4416,19.691-15.9563,33.053s15.9563,25.317,15.9563,36.569-9.7797,26.02-11.3238,37.976" fill="none" stroke="#2e2e2e" stroke-width="2" stroke-linecap="round"/><path d="M101.821,250c1.887,4.688,5.559,17.441,5.147,30.943-.515,16.878-15.4415,19.691-15.9562,33.053s15.9562,25.317,15.9562,36.569-9.7796,26.02-11.3237,37.976" fill="none" stroke="#2e2e2e" stroke-width="2" stroke-linecap="round"/><path d="M100.233,184.468c5.96,16.695-5.2767,40.053-13.2512,50.578-2.8336,3.739-7.4371,5.46-11.9672,4.238-11.3159-3.052-28.3796-13.991-35.6206-35.951-4.949-15.009,1.898-33.052,22.3314-38.504c12.4922-3.66,31.1054-1.094,38.5076,19.639Z" fill="#3dd598" stroke="#000" stroke-width="2" stroke-linecap="round"/><path d="M118.745,158.434c1.969,17.618-14.331,37.773-24.5084,46.185-3.6164,2.99-8.492,3.607-12.6205,1.378-10.3131-5.568-24.4098-20.132-26.4159-43.168-1.3711-15.745,9.4352-31.733,30.5745-32.349c12.9989-.694,30.5253,6.076,32.9703,27.954Z" fill="#ffc542" stroke="#000" stroke-width="2" stroke-linecap="round"/><path d="M130.614,224.787c-.644,17.716-19.73,35.253-31.0346,42.078-4.0167,2.424-8.9301,2.318-12.6859-.494-9.3818-7.025-21.1831-23.504-19.7791-46.584.9596-15.775,14-30,34.9996-27.5c12.96,1.225,29.3,10.5,28.5,32.5Z" fill="#ff5592" stroke="#000" stroke-width="2" stroke-linecap="round"/><path d="M92.5,269c1.8333,3.333,5.4,12.4,5,22-.5,12-15,14-15.5,23.5s15.5,18,15.5,26-9.5,18.5-11,27c-1.2,6.8-.5,19.167,0,24.5" fill="none" stroke="#2e2e2e" stroke-width="2" stroke-linecap="round"/><path d="M465.821,216c1.887,4.688,5.559,17.441,5.147,30.943-.515,16.878-15.441,19.691-15.956,33.053s15.956,25.317,15.956,36.569-9.78,26.02-11.324,37.976" fill="none" stroke="#2e2e2e" stroke-width="2" stroke-linecap="round"/><path d="M486.821,222c1.887,4.688,5.559,17.441,5.147,30.943-.515,16.878-15.441,19.691-15.956,33.053s15.956,25.317,15.956,36.569-9.78,26.02-11.324,37.976" fill="none" stroke="#2e2e2e" stroke-width="2" stroke-linecap="round"/><path d="M485.233,156.468c5.96,16.695-5.277,40.053-13.251,50.578-2.834,3.739-7.437,5.46-11.967,4.238-11.316-3.052-28.38-13.991-35.621-35.951-4.949-15.009,1.898-33.052,22.331-38.504c12.493-3.66,31.106-1.094,38.508,19.639Z" fill="#53b3cb" stroke="#000" stroke-width="2" stroke-linecap="round"/><path d="M503.745,130.434c1.969,17.618-14.331,37.773-24.508,46.185-3.617,2.99-8.492,3.607-12.621,1.378-10.313-5.568-24.41-20.132-26.416-43.168-1.371-15.745,9.435-31.733,30.575-32.349c12.999-.694,30.525,6.076,32.97,27.954Z" fill="#ff7f7f" stroke="#000" stroke-width="2" stroke-linecap="round"/><path d="M515.614,196.787c-.644,17.716-19.73,35.253-31.035,42.078-4.016,2.424-8.93,2.318-12.685-.494-9.382-7.025-21.184-23.504-19.78-46.584.96-15.775,14-30,35-27.5c12.96,1.225,29.3,10.5,28.5,32.5Z" fill="#3dd598" stroke="#000" stroke-width="2" stroke-linecap="round"/><path d="M477.5,241c1.833,3.333,5.4,12.4,5,22-.5,12-15,14-15.5,23.5s15.5,18,15.5,26-9.5,18.5-11,27c-1.2,6.8-.5,19.167,0,24.5" fill="none" stroke="#2e2e2e" stroke-width="2" stroke-linecap="round"/><path d="M306,-2c11.548,5.97617,58.057,24.4064,144.5,26s98.003-17.53376,114.5-23.509931" fill="none" stroke="#777" stroke-linecap="round"/><path d="M348.523,10.441c.102-.58263.616-.97795,1.148-.88298l24.156,4.31508c.532.095.88.6443.778,1.2269l-6.31,35.899c-.128.7311-.88,1.1222-1.464.7619l-10.63-6.56c-.196-.1213-.428-.1627-.654-.1168l-12.218,2.4785c-.671.1362-1.244-.4915-1.115-1.2226l6.309-35.899Z"/><path d="M346.571,10.0551c.096-.54385.615-.90661,1.159-.81029l24.707,4.37639c.544.0963.907.6152.811,1.159l-5.935,33.5073c-.121.6823-.883,1.0379-1.483.6925l-10.938-6.2879c-.202-.1163-.439-.1582-.669-.1185l-12.432,2.1485c-.683.118-1.276-.4774-1.155-1.1598l5.935-33.5072Z" fill="#ff5592"/><path d="M468.582,23.0617c-.037-.5904.371-1.095.91-1.1269l24.495-1.4518c.54-.0319,1.006.4208,1.043,1.0112l2.258,36.3793c.046.7408-.594,1.2969-1.245,1.083l-11.87-3.8932c-.219-.072-.454-.0581-.662.0393L472.21,60.369c-.621.2892-1.324-.1872-1.37-.9281l-2.258-36.3792Z"/><path d="M466.594,23.1428c-.034-.5513.386-1.0253.937-1.0588l25.046-1.521c.551-.0334,1.025.3863,1.059.9376l2.063,33.9662c.042.6917-.616,1.2154-1.28,1.0201l-12.105-3.5567c-.224-.0658-.464-.0512-.678.0412l-11.585,4.9953c-.637.2744-1.352-.166-1.394-.8577l-2.063-33.9662Z" fill="#3dd598"/><path d="M409.037,20.155c.032-.5907.495-1.0446,1.034-1.0138l24.499,1.4c.539.0308.95.5347.918,1.1254L433.51,58.0621c-.04.7411-.74,1.2193-1.362.9312L420.81,53.7494c-.209-.0969-.444-.1104-.663-.0379l-11.835,3.9198c-.65.2153-1.293-.3396-1.253-1.0808l1.978-36.3955Z"/><path d="M407.053,20.0049c.031-.5514.502-.9736,1.054-.9429l25.053,1.395c.551.0308.974.5027.943,1.0541l-1.892,33.9762c-.039.6919-.752,1.1358-1.39.8646l-11.61-4.937c-.215-.0913-.455-.1046-.678-.0377l-12.087,3.6175c-.664.1987-1.324-.3217-1.285-1.0136l1.892-33.9762Z" fill="#0062ff"/><path d="M522.238,16.0095c-.148-.5728.156-1.1455.679-1.2793l23.774-6.07926c.523-.1338,1.067.222,1.216.79472l9.128,35.28764c.186.7186-.336,1.386-1.017,1.2999L543.626,44.466c-.23-.029-.457.0292-.644.1645l-10.094,7.3174c-.554.402-1.336.0678-1.522-.6508l-9.128-35.2876Z"/><path d="M520.302,16.4667c-.138-.5349.184-1.08.719-1.2176l24.3-6.25179c.535-.13761,1.08.18444,1.218.71931l8.478,32.95568c.173.6711-.373,1.3101-1.062,1.2447l-12.56-1.1921c-.233-.0221-.465.0378-.658.1692l-10.425,7.1054c-.573.3903-1.359.094-1.532-.5771l-8.478-32.9557Z" fill="#ffc542"/><path d="M1,-2C12.5478,3.97617,59.0567,22.4064,145.5,24C231.943,25.5936,243.503,6.46624,260,0.490069" fill="none" stroke="#777" stroke-linecap="round"/><path d="M31.5229,7.44101c.1024-.58264.6165-.97796,1.1481-.88299L56.8273,10.8731c.5317.095.8797.6443.7773,1.2269L51.2951,47.999c-.1284.7311-.8801,1.1222-1.4639.7619l-10.6301-6.56c-.1966-.1213-.4278-.1627-.6538-.1168L26.3287,44.5626c-.6711.1362-1.2437-.4915-1.1152-1.2226L31.5229,7.44101Z"/><path d="M29.571,7.05507c.0963-.54382.6152-.90658,1.1591-.81026L55.4374,10.6212c.5438.0963.9066.6152.8102,1.159l-5.935,33.5073c-.1209.6823-.8823,1.0379-1.4831.6925L37.8917,39.6921c-.2022-.1163-.4388-.1582-.6687-.1185L24.7909,41.7221c-.6829.118-1.2758-.4774-1.155-1.1598L29.571,7.05507Z" fill="#0062ff"/><path d="M153.582,23.0617c-.037-.5904.371-1.095.91-1.1269l24.495-1.4518c.54-.0319,1.006.4208,1.043,1.0112l2.258,36.3793c.046.7408-.594,1.2969-1.245,1.083l-11.87-3.8932c-.219-.072-.454-.0581-.663.0393l-11.3,5.2664c-.621.2892-1.324-.1872-1.37-.9281l-2.258-36.3792Z"/><path d="M151.594,23.1428c-.034-.5513.386-1.0253.937-1.0588l25.046-1.521c.551-.0334,1.025.3863,1.059.9376l2.063,33.9662c.042.6917-.616,1.2154-1.28,1.0201l-12.105-3.5567c-.224-.0658-.464-.0512-.678.0412l-11.585,4.9953c-.637.2744-1.352-.166-1.394-.8577l-2.063-33.9662Z" fill="#3dd598"/><path d="M93.0369,20.155c.0321-.5907.4953-1.0446,1.0345-1.0138l24.4986,1.4c.539.0308.95.5347.918,1.1254L117.51,58.0621c-.04.7411-.74,1.2193-1.362.9312L104.81,53.7494c-.209-.0969-.444-.1104-.663-.0379L92.3121,57.6313c-.65.2153-1.2934-.3396-1.2532-1.0808l1.978-36.3955Z"/><path d="M91.0529,20.0049c.0307-.5514.5026-.9736,1.054-.9429L117.16,20.457c.551.0308.974.5027.943,1.0541l-1.892,33.9762c-.039.6919-.752,1.1358-1.39.8646l-11.61-4.937c-.215-.0913-.455-.1046-.678-.0377L90.4462,54.9947c-.6639.1987-1.3237-.3217-1.2852-1.0136l1.8919-33.9762Z" fill="#ff5592"/><path d="M210.699,19.0095c-.149-.5728.155-1.1455.679-1.2793l23.773-6.0793c.524-.1338,1.068.222,1.216.7948l9.129,35.2876c.185.7186-.337,1.386-1.017,1.2999L232.086,47.466c-.229-.029-.457.0292-.643.1645l-10.095,7.3174c-.554.402-1.335.0678-1.521-.6508l-9.128-35.2876Z"/><path d="M208.762,19.4667c-.138-.5349.184-1.08.719-1.2176l24.301-6.2518c.535-.1376,1.08.1844,1.218.7193l8.478,32.9557c.173.6711-.373,1.3101-1.063,1.2447l-12.56-1.1921c-.232-.0221-.465.0378-.658.1692l-10.425,7.1054c-.573.3903-1.359.094-1.532-.5771l-8.478-32.9557Z" fill="#ff7f7f"/></g><clipPath id="eUgxSdWNFXY65"><rect width="568" height="339" rx="0" ry="0" fill="#fff"/></clipPath></g></g><clipPath id="eUgxSdWNFXY67"><rect width="568" height="339" rx="0" ry="0" fill="#fff"/></clipPath></g></svg>