<svg width="300" height="76" viewBox="0 0 300 76" fill="none" xmlns="http://www.w3.org/2000/svg">
<path d="M45.7413 64V32.275H61.0413C64.4613 32.275 67.1013 33.025 68.9613 34.525C70.8513 35.995 71.7963 37.975 71.7963 40.465C71.7963 42.115 71.3763 43.555 70.5363 44.785C69.7263 46.015 68.5863 46.93 67.1163 47.53C68.8863 48.07 70.2513 48.985 71.2113 50.275C72.1713 51.535 72.6513 53.11 72.6513 55C72.6513 57.79 71.6463 59.995 69.6363 61.615C67.6563 63.205 64.9413 64 61.4913 64H45.7413ZM53.6613 44.875H59.5563C61.0563 44.875 62.1513 44.605 62.8413 44.065C63.5613 43.525 63.9213 42.7 63.9213 41.59C63.9213 40.48 63.5613 39.67 62.8413 39.16C62.1513 38.62 61.0563 38.35 59.5563 38.35H53.6613V44.875ZM53.6613 57.925H60.3663C61.8963 57.925 63.0063 57.64 63.6963 57.07C64.4163 56.47 64.7763 55.585 64.7763 54.415C64.7763 53.245 64.4163 52.375 63.6963 51.805C63.0063 51.235 61.8963 50.95 60.3663 50.95H53.6613V57.925ZM76.573 38.035V30.79H84.988V38.035H76.573ZM76.798 64V41.86H84.808V64H76.798ZM89.4543 64V41.86H97.2393V45.595C98.2593 43.045 100.464 41.65 103.854 41.41L106.059 41.23L106.509 47.98L102.144 48.385C100.554 48.535 99.3993 48.985 98.6793 49.735C97.9593 50.455 97.5993 51.535 97.5993 52.975V64H89.4543ZM121.894 64.495C118.534 64.495 116.044 63.715 114.424 62.155C112.804 60.595 111.994 58.24 111.994 55.09V47.755H107.854V41.86H111.994V35.425H120.004V41.86H126.304V47.755H120.004V54.82C120.004 56.98 121.099 58.06 123.289 58.06C123.649 58.06 124.039 58.03 124.459 57.97C124.909 57.88 125.404 57.76 125.944 57.61L127.024 63.37C126.334 63.73 125.524 64 124.594 64.18C123.664 64.39 122.764 64.495 121.894 64.495ZM129.444 64V32.275H137.454V44.605C139.044 42.445 141.354 41.365 144.384 41.365C147.024 41.365 148.974 42.145 150.234 43.705C151.524 45.265 152.169 47.665 152.169 50.905V64H144.159V51.22C144.159 49.87 143.919 48.91 143.439 48.34C142.989 47.77 142.314 47.485 141.414 47.485C140.214 47.485 139.254 47.875 138.534 48.655C137.814 49.405 137.454 50.425 137.454 51.715V64H129.444ZM165.375 64.495C163.485 64.495 161.805 64.03 160.335 63.1C158.895 62.17 157.755 60.835 156.915 59.095C156.105 57.355 155.7 55.3 155.7 52.93C155.7 50.53 156.105 48.475 156.915 46.765C157.755 45.025 158.895 43.69 160.335 42.76C161.805 41.83 163.485 41.365 165.375 41.365C166.785 41.365 168.075 41.665 169.245 42.265C170.445 42.835 171.36 43.585 171.99 44.515V32.275H180V64H172.17V60.94C171.6 62.02 170.7 62.89 169.47 63.55C168.24 64.18 166.875 64.495 165.375 64.495ZM167.94 58.6C169.14 58.6 170.13 58.15 170.91 57.25C171.69 56.35 172.08 54.91 172.08 52.93C172.08 50.92 171.69 49.48 170.91 48.61C170.13 47.71 169.14 47.26 167.94 47.26C166.71 47.26 165.705 47.71 164.925 48.61C164.145 49.48 163.755 50.92 163.755 52.93C163.755 54.91 164.145 56.35 164.925 57.25C165.705 58.15 166.71 58.6 167.94 58.6ZM192.335 64.495C190.625 64.495 189.11 64.18 187.79 63.55C186.5 62.92 185.48 62.065 184.73 60.985C184.01 59.875 183.65 58.615 183.65 57.205C183.65 55.615 184.07 54.355 184.91 53.425C185.75 52.465 187.1 51.79 188.96 51.4C190.82 50.98 193.295 50.77 196.385 50.77H198.095V50.14C198.095 49.06 197.81 48.295 197.24 47.845C196.7 47.395 195.755 47.17 194.405 47.17C193.265 47.17 192.005 47.35 190.625 47.71C189.245 48.07 187.895 48.625 186.575 49.375L184.55 44.11C185.3 43.57 186.26 43.09 187.43 42.67C188.6 42.25 189.83 41.935 191.12 41.725C192.41 41.485 193.625 41.365 194.765 41.365C198.455 41.365 201.185 42.16 202.955 43.75C204.755 45.34 205.655 47.845 205.655 51.265V64H198.185V60.85C197.795 61.99 197.09 62.89 196.07 63.55C195.05 64.18 193.805 64.495 192.335 64.495ZM194.135 59.275C195.245 59.275 196.175 58.915 196.925 58.195C197.705 57.475 198.095 56.53 198.095 55.36V54.55H196.385C194.615 54.55 193.31 54.745 192.47 55.135C191.66 55.495 191.255 56.08 191.255 56.89C191.255 57.58 191.495 58.15 191.975 58.6C192.485 59.05 193.205 59.275 194.135 59.275ZM211.346 72.1L215.801 62.47L206.756 41.86H215.171L220.031 54.415L225.071 41.86H232.991L219.446 72.1H211.346ZM248.568 53.29L246.093 32.275H255.903L253.383 53.29H248.568ZM246.813 64V55.81H255.138V64H246.813Z" fill="#05A692"/>
<path d="M128.401 7.58691C128.39 7.64388 128.367 7.88314 128.333 8.30469C128.31 8.71484 128.276 9.26172 128.231 9.94531C128.185 10.6175 128.128 11.4036 128.06 12.3037C128.003 13.2038 127.94 14.1665 127.872 15.1919C127.815 16.2059 127.752 17.2598 127.684 18.3535C127.615 19.4473 127.547 20.5296 127.479 21.6006L128.521 22.3525C129.683 22.0791 130.868 21.7829 132.076 21.4639C133.283 21.1449 134.411 20.8372 135.46 20.541L136.348 7.72363C136.36 7.55273 136.371 7.41032 136.382 7.29639C136.405 7.18245 136.434 7.08561 136.468 7.00586C136.513 6.92611 136.57 6.86344 136.639 6.81787C136.719 6.7723 136.821 6.73812 136.946 6.71533C137.072 6.69255 137.163 6.65267 137.22 6.5957C137.288 6.52734 137.339 6.45898 137.374 6.39062C137.419 6.32227 137.465 6.2596 137.51 6.20264C137.567 6.13428 137.647 6.08301 137.75 6.04883C137.852 6.01465 137.96 5.96338 138.074 5.89502C138.2 5.82666 138.319 5.7583 138.433 5.68994C138.547 5.61019 138.655 5.54183 138.758 5.48486C138.86 5.4279 138.957 5.39941 139.048 5.39941C139.174 5.39941 139.282 5.45068 139.373 5.55322C139.476 5.65576 139.527 5.79248 139.527 5.96338C139.527 6.04313 139.51 6.28809 139.476 6.69824C139.453 7.09701 139.419 7.62679 139.373 8.2876C139.328 8.93701 139.271 9.69466 139.202 10.5605C139.145 11.4264 139.077 12.355 138.997 13.3462C138.929 14.326 138.849 15.3514 138.758 16.4224C138.678 17.4933 138.598 18.5643 138.519 19.6353C138.804 19.5441 139.037 19.4644 139.219 19.396C139.413 19.3276 139.55 19.2764 139.63 19.2422C139.812 19.1624 139.931 19.1226 139.988 19.1226C140.08 19.1226 140.148 19.151 140.193 19.208C140.239 19.265 140.262 19.339 140.262 19.4302C140.262 19.5213 140.239 19.6239 140.193 19.7378C140.148 19.8517 140.068 19.9429 139.954 20.0112C139.886 20.0682 139.721 20.1479 139.459 20.2505C139.208 20.3416 138.872 20.467 138.45 20.6265C138.348 21.9481 138.251 23.2127 138.16 24.4204C138.069 25.6281 137.983 26.7048 137.903 27.6504C137.835 28.5846 137.778 29.3423 137.733 29.9233C137.687 30.493 137.658 30.8063 137.647 30.8633C137.613 31.1595 137.522 31.3646 137.374 31.4785C137.237 31.5924 137.043 31.6494 136.793 31.6494C136.644 31.6494 136.496 31.5981 136.348 31.4956C136.2 31.4045 136.024 31.262 135.818 31.0684C135.625 30.8747 135.397 30.6411 135.135 30.3677C134.873 30.0828 134.554 29.7581 134.178 29.3936C133.506 28.7441 132.902 28.1802 132.366 27.7017C131.842 27.2118 131.341 26.7617 130.862 26.3516C130.395 25.9414 129.934 25.554 129.478 25.1895C129.034 24.8249 128.55 24.4375 128.026 24.0273C127.9 24.0729 127.775 24.1128 127.65 24.147C127.536 24.1812 127.416 24.2153 127.291 24.2495C127.234 25.161 127.177 26.0212 127.12 26.8301C127.063 27.6276 127.012 28.3454 126.966 28.9834C126.932 29.61 126.898 30.1398 126.863 30.5728C126.829 30.9943 126.806 31.2791 126.795 31.4272C126.749 31.8602 126.658 32.3558 126.522 32.9141C126.396 33.4837 126.168 34.0648 125.838 34.6572C125.519 35.2611 125.069 35.8535 124.488 36.4346C123.907 37.0156 123.138 37.5454 122.181 38.0239C122.124 38.0467 122.067 38.0695 122.01 38.0923C121.953 38.1151 121.885 38.1265 121.805 38.1265C121.702 38.1265 121.623 38.0923 121.566 38.0239C121.52 37.9556 121.497 37.8758 121.497 37.7847C121.497 37.6935 121.52 37.6024 121.566 37.5112C121.611 37.4201 121.685 37.3403 121.788 37.272C121.913 37.1808 122.073 37.0555 122.266 36.896C122.46 36.7365 122.654 36.5143 122.847 36.2295C123.041 35.9447 123.212 35.5858 123.36 35.1528C123.508 34.7313 123.599 34.2129 123.633 33.5977C123.668 33.3014 123.707 32.8001 123.753 32.0938C123.799 31.4899 123.856 30.624 123.924 29.4961C123.992 28.3568 124.083 26.8529 124.197 24.9844C123.89 25.0299 123.588 25.0641 123.292 25.0869C123.007 25.0983 122.728 25.104 122.454 25.104C121.531 25.104 120.717 24.9958 120.01 24.7793C119.304 24.5628 118.712 24.2723 118.233 23.9077C117.755 23.5431 117.39 23.1273 117.139 22.6602C116.9 22.1816 116.78 21.6803 116.78 21.1562C116.78 20.6436 116.86 20.2049 117.02 19.8403C117.179 19.4644 117.396 19.1567 117.669 18.9175C117.954 18.6782 118.284 18.5016 118.66 18.3877C119.036 18.2738 119.435 18.2168 119.857 18.2168C120.54 18.2168 121.275 18.3421 122.061 18.5928C122.859 18.8434 123.673 19.1909 124.505 19.6353L125.103 8.49268C125.126 8.12809 125.251 7.86605 125.479 7.70654C125.718 7.54704 126.02 7.46729 126.385 7.46729C126.476 7.46729 126.527 7.47298 126.539 7.48438C126.55 7.49577 126.573 7.50146 126.607 7.50146C126.687 7.50146 126.761 7.47868 126.829 7.43311C126.909 7.37614 126.983 7.31348 127.051 7.24512C127.131 7.17676 127.2 7.11979 127.256 7.07422C127.325 7.01725 127.393 6.98877 127.462 6.98877C127.575 6.98877 127.695 6.9432 127.82 6.85205C127.946 6.7609 128.071 6.71533 128.196 6.71533C128.367 6.71533 128.453 6.82357 128.453 7.04004C128.453 7.16536 128.436 7.34766 128.401 7.58691ZM129.991 23.4292C130.845 24.0786 131.677 24.7394 132.486 25.4116C133.306 26.0838 134.132 26.8358 134.964 27.6675L135.374 21.686C134.588 21.9481 133.739 22.2272 132.828 22.5234C131.928 22.8083 130.982 23.1102 129.991 23.4292ZM123.651 23.1387C123.753 23.1387 123.856 23.1387 123.958 23.1387C124.072 23.1387 124.186 23.133 124.3 23.1216L124.402 21.3784C123.753 20.991 123.178 20.7119 122.676 20.541C122.175 20.3701 121.748 20.2847 121.395 20.2847C120.996 20.2847 120.688 20.3758 120.472 20.5581C120.255 20.7404 120.147 20.991 120.147 21.3101C120.147 21.5265 120.21 21.743 120.335 21.9595C120.472 22.1759 120.677 22.3753 120.95 22.5576C121.235 22.7285 121.6 22.8709 122.044 22.9849C122.488 23.0874 123.024 23.1387 123.651 23.1387ZM150.652 25.0527C150.311 26.0781 149.992 26.9782 149.695 27.7529C149.399 28.5163 149.103 29.16 148.807 29.6841C148.511 30.1968 148.192 30.5841 147.85 30.8462C147.519 31.1082 147.149 31.2393 146.739 31.2393C146.454 31.2393 146.215 31.1481 146.021 30.9658C145.839 30.7835 145.685 30.5785 145.56 30.3506C145.434 30.1227 145.338 29.9062 145.269 29.7012C145.212 29.4847 145.172 29.3423 145.15 29.2739C145.138 29.2511 145.127 29.217 145.115 29.1714C145.104 29.1258 145.087 29.103 145.064 29.103C145.041 29.103 145.019 29.1201 144.996 29.1543C144.984 29.1885 144.967 29.2227 144.944 29.2568C144.91 29.3366 144.819 29.4847 144.671 29.7012C144.523 29.9176 144.335 30.1398 144.107 30.3677C143.891 30.5955 143.64 30.8006 143.355 30.9829C143.07 31.1538 142.763 31.2393 142.432 31.2393C142.17 31.2393 141.914 31.1538 141.663 30.9829C141.424 30.812 141.213 30.5841 141.031 30.2993C140.849 30.0031 140.706 29.6556 140.604 29.2568C140.49 28.8581 140.433 28.4308 140.433 27.9751C140.433 26.9839 140.592 26.0553 140.911 25.1895C141.219 24.3122 141.726 23.4349 142.432 22.5576C142.774 22.1361 143.133 21.7601 143.509 21.4297C143.896 21.0993 144.272 20.8258 144.637 20.6094C145.001 20.3815 145.349 20.2106 145.679 20.0967C146.021 19.9827 146.312 19.9258 146.551 19.9258C146.71 19.9258 146.87 19.9543 147.029 20.0112C147.189 20.0682 147.331 20.165 147.457 20.3018C147.582 20.4385 147.679 20.6208 147.747 20.8486C147.827 21.0651 147.867 21.3328 147.867 21.6519C147.867 21.9937 147.81 22.3639 147.696 22.7627C147.593 23.1615 147.434 23.5374 147.217 23.8906C147.012 24.2324 146.756 24.5173 146.448 24.7451C146.141 24.973 145.793 25.0869 145.406 25.0869C145.167 25.0869 145.047 24.9958 145.047 24.8135C145.047 24.6882 145.075 24.4831 145.132 24.1982C145.201 23.9134 145.235 23.64 145.235 23.3779C145.235 23.2754 145.229 23.1558 145.218 23.019C145.207 22.8709 145.178 22.7285 145.132 22.5918C145.087 22.4551 145.024 22.3411 144.944 22.25C144.865 22.1589 144.756 22.1133 144.62 22.1133C144.312 22.1133 144.044 22.2557 143.817 22.5405C143.589 22.8254 143.395 23.1729 143.235 23.583C143.087 23.9932 142.973 24.4204 142.894 24.8647C142.814 25.3091 142.774 25.6908 142.774 26.0098C142.774 26.4427 142.808 26.8073 142.877 27.1035C142.945 27.3883 143.036 27.6219 143.15 27.8042C143.264 27.9751 143.395 28.1004 143.543 28.1802C143.691 28.2485 143.845 28.2827 144.005 28.2827C144.38 28.2827 144.717 28.1574 145.013 27.9067C145.309 27.6447 145.565 27.3599 145.782 27.0522C145.998 26.7332 146.175 26.4484 146.312 26.1978C146.46 25.9357 146.579 25.8047 146.671 25.8047C146.773 25.8047 146.841 25.9243 146.876 26.1636C146.944 26.6763 147.018 27.0978 147.098 27.4282C147.178 27.7586 147.257 28.0207 147.337 28.2144C147.417 28.3966 147.497 28.5277 147.576 28.6074C147.667 28.6758 147.759 28.71 147.85 28.71C148.021 28.71 148.192 28.6131 148.362 28.4194C148.533 28.2144 148.704 27.9409 148.875 27.5991C149.046 27.2573 149.223 26.8586 149.405 26.4028C149.587 25.9471 149.781 25.4629 149.986 24.9502C150.111 24.6654 150.259 24.5229 150.43 24.5229C150.601 24.5229 150.687 24.6255 150.687 24.8306C150.687 24.9103 150.675 24.9844 150.652 25.0527ZM152.96 18.5073C153.051 18.5073 153.159 18.5415 153.284 18.6099C153.375 18.6668 153.421 18.7808 153.421 18.9517C153.421 19.1226 153.387 19.3219 153.318 19.5498C153.25 19.7663 153.205 19.9543 153.182 20.1138C153.102 20.4784 153.028 20.8828 152.96 21.3271C152.891 21.7715 152.829 22.2386 152.772 22.7285C153.284 21.8626 153.814 21.2588 154.361 20.917C154.919 20.5638 155.415 20.3872 155.848 20.3872C156.292 20.3872 156.679 20.4727 157.01 20.6436C157.352 20.8145 157.631 21.0537 157.847 21.3613C158.064 21.6576 158.223 22.0164 158.326 22.438C158.44 22.8595 158.497 23.3267 158.497 23.8394C158.497 25.0698 158.337 26.118 158.018 26.9839C157.699 27.8498 157.312 28.5675 156.856 29.1372C157.392 28.9663 157.938 28.6359 158.497 28.146C158.736 27.9295 159.026 27.5706 159.368 27.0693C159.71 26.568 160.063 25.8617 160.428 24.9502C160.553 24.6654 160.713 24.5229 160.906 24.5229C161.066 24.5229 161.146 24.6141 161.146 24.7964C161.146 24.8647 161.129 24.9502 161.094 25.0527C160.775 25.9414 160.434 26.682 160.069 27.2744C159.704 27.8669 159.334 28.3454 158.958 28.71C158.594 29.0745 158.229 29.3423 157.864 29.5132C157.511 29.6841 157.186 29.8037 156.89 29.8721L156.019 30.0259C155.495 30.4702 154.993 30.7835 154.515 30.9658C154.036 31.1481 153.694 31.2393 153.489 31.2393C153.318 31.2393 153.17 31.2165 153.045 31.1709C152.931 31.1253 152.834 31.0228 152.755 30.8633C152.698 30.738 152.635 30.5841 152.567 30.4019C152.51 30.2082 152.481 30.043 152.481 29.9062C152.481 29.61 152.606 29.4106 152.857 29.3081C153.119 29.2056 153.45 29.1543 153.848 29.1543C153.985 29.1543 154.122 29.16 154.258 29.1714C154.407 29.1828 154.56 29.1999 154.72 29.2227C154.891 28.9492 155.05 28.6188 155.198 28.2314C155.358 27.8327 155.489 27.4054 155.591 26.9497C155.705 26.4826 155.791 25.9927 155.848 25.48C155.916 24.9559 155.95 24.4261 155.95 23.8906C155.95 22.7399 155.671 22.1646 155.113 22.1646C154.817 22.1646 154.543 22.2728 154.293 22.4893C154.053 22.7057 153.831 22.9849 153.626 23.3267C153.421 23.6685 153.239 24.0501 153.079 24.4717C152.931 24.8932 152.8 25.3148 152.686 25.7363C152.572 26.1579 152.481 26.5566 152.413 26.9326C152.356 27.3086 152.322 27.6162 152.31 27.8555L152.276 27.8896C152.265 28.0492 152.253 28.1973 152.242 28.334C152.242 28.4707 152.242 28.6017 152.242 28.7271C152.23 28.7271 152.213 29.2227 152.191 30.2139C152.168 31.2051 152.094 32.7261 151.968 34.7769C151.911 35.7681 151.854 36.6169 151.797 37.3232C151.752 38.0296 151.706 38.6221 151.661 39.1006C151.627 39.5905 151.587 39.9893 151.541 40.2969C151.496 40.6045 151.45 40.8551 151.404 41.0488C151.359 41.2197 151.273 41.3507 151.148 41.4419C151.034 41.5444 150.903 41.6242 150.755 41.6812C150.618 41.7381 150.487 41.7837 150.362 41.8179C150.237 41.8521 150.14 41.8976 150.071 41.9546C149.764 42.2166 149.519 42.4046 149.337 42.5186C149.143 42.6325 148.995 42.6895 148.892 42.6895C148.801 42.6895 148.721 42.6439 148.653 42.5527C148.585 42.473 148.55 42.3534 148.55 42.1938C148.55 42.1027 148.568 41.9774 148.602 41.8179C148.636 41.6356 148.687 41.271 148.755 40.7241C148.79 40.4849 148.83 40.1943 148.875 39.8525C148.909 39.5221 148.955 39.1177 149.012 38.6392C149.069 38.172 149.131 37.6252 149.2 36.9985C149.268 36.3833 149.348 35.6769 149.439 34.8794C149.45 34.7541 149.473 34.4578 149.507 33.9907C149.542 33.535 149.587 32.971 149.644 32.2988C149.69 31.6266 149.747 30.8861 149.815 30.0771C149.872 29.2568 149.935 28.4251 150.003 27.582C150.071 26.7389 150.14 25.9186 150.208 25.1211C150.276 24.3122 150.345 23.5887 150.413 22.9507C150.482 22.3013 150.544 21.7658 150.601 21.3442C150.67 20.9227 150.727 20.6777 150.772 20.6094C150.897 20.3815 151.046 20.1593 151.216 19.9429C151.399 19.7264 151.621 19.5156 151.883 19.3105C151.963 19.2422 152.048 19.1624 152.139 19.0713C152.23 18.9801 152.322 18.8947 152.413 18.8149C152.515 18.7238 152.606 18.6497 152.686 18.5928C152.777 18.5358 152.868 18.5073 152.96 18.5073ZM163.384 18.5073C163.476 18.5073 163.584 18.5415 163.709 18.6099C163.8 18.6668 163.846 18.7808 163.846 18.9517C163.846 19.1226 163.812 19.3219 163.743 19.5498C163.675 19.7663 163.629 19.9543 163.607 20.1138C163.527 20.4784 163.453 20.8828 163.384 21.3271C163.316 21.7715 163.253 22.2386 163.196 22.7285C163.709 21.8626 164.239 21.2588 164.786 20.917C165.344 20.5638 165.84 20.3872 166.273 20.3872C166.717 20.3872 167.104 20.4727 167.435 20.6436C167.776 20.8145 168.056 21.0537 168.272 21.3613C168.489 21.6576 168.648 22.0164 168.751 22.438C168.865 22.8595 168.922 23.3267 168.922 23.8394C168.922 25.0698 168.762 26.118 168.443 26.9839C168.124 27.8498 167.737 28.5675 167.281 29.1372C167.816 28.9663 168.363 28.6359 168.922 28.146C169.161 27.9295 169.451 27.5706 169.793 27.0693C170.135 26.568 170.488 25.8617 170.853 24.9502C170.978 24.6654 171.137 24.5229 171.331 24.5229C171.491 24.5229 171.57 24.6141 171.57 24.7964C171.57 24.8647 171.553 24.9502 171.519 25.0527C171.2 25.9414 170.858 26.682 170.494 27.2744C170.129 27.8669 169.759 28.3454 169.383 28.71C169.018 29.0745 168.654 29.3423 168.289 29.5132C167.936 29.6841 167.611 29.8037 167.315 29.8721L166.443 30.0259C165.919 30.4702 165.418 30.7835 164.94 30.9658C164.461 31.1481 164.119 31.2393 163.914 31.2393C163.743 31.2393 163.595 31.2165 163.47 31.1709C163.356 31.1253 163.259 31.0228 163.179 30.8633C163.122 30.738 163.06 30.5841 162.991 30.4019C162.934 30.2082 162.906 30.043 162.906 29.9062C162.906 29.61 163.031 29.4106 163.282 29.3081C163.544 29.2056 163.874 29.1543 164.273 29.1543C164.41 29.1543 164.547 29.16 164.683 29.1714C164.831 29.1828 164.985 29.1999 165.145 29.2227C165.316 28.9492 165.475 28.6188 165.623 28.2314C165.783 27.8327 165.914 27.4054 166.016 26.9497C166.13 26.4826 166.216 25.9927 166.273 25.48C166.341 24.9559 166.375 24.4261 166.375 23.8906C166.375 22.7399 166.096 22.1646 165.538 22.1646C165.241 22.1646 164.968 22.2728 164.717 22.4893C164.478 22.7057 164.256 22.9849 164.051 23.3267C163.846 23.6685 163.664 24.0501 163.504 24.4717C163.356 24.8932 163.225 25.3148 163.111 25.7363C162.997 26.1579 162.906 26.5566 162.838 26.9326C162.781 27.3086 162.746 27.6162 162.735 27.8555L162.701 27.8896C162.689 28.0492 162.678 28.1973 162.667 28.334C162.667 28.4707 162.667 28.6017 162.667 28.7271C162.655 28.7271 162.638 29.2227 162.615 30.2139C162.593 31.2051 162.519 32.7261 162.393 34.7769C162.336 35.7681 162.279 36.6169 162.222 37.3232C162.177 38.0296 162.131 38.6221 162.086 39.1006C162.051 39.5905 162.012 39.9893 161.966 40.2969C161.92 40.6045 161.875 40.8551 161.829 41.0488C161.784 41.2197 161.698 41.3507 161.573 41.4419C161.459 41.5444 161.328 41.6242 161.18 41.6812C161.043 41.7381 160.912 41.7837 160.787 41.8179C160.661 41.8521 160.565 41.8976 160.496 41.9546C160.189 42.2166 159.944 42.4046 159.761 42.5186C159.568 42.6325 159.42 42.6895 159.317 42.6895C159.226 42.6895 159.146 42.6439 159.078 42.5527C159.009 42.473 158.975 42.3534 158.975 42.1938C158.975 42.1027 158.992 41.9774 159.026 41.8179C159.061 41.6356 159.112 41.271 159.18 40.7241C159.214 40.4849 159.254 40.1943 159.3 39.8525C159.334 39.5221 159.38 39.1177 159.437 38.6392C159.494 38.172 159.556 37.6252 159.625 36.9985C159.693 36.3833 159.773 35.6769 159.864 34.8794C159.875 34.7541 159.898 34.4578 159.932 33.9907C159.966 33.535 160.012 32.971 160.069 32.2988C160.115 31.6266 160.172 30.8861 160.24 30.0771C160.297 29.2568 160.36 28.4251 160.428 27.582C160.496 26.7389 160.565 25.9186 160.633 25.1211C160.701 24.3122 160.77 23.5887 160.838 22.9507C160.906 22.3013 160.969 21.7658 161.026 21.3442C161.094 20.9227 161.151 20.6777 161.197 20.6094C161.322 20.3815 161.47 20.1593 161.641 19.9429C161.824 19.7264 162.046 19.5156 162.308 19.3105C162.387 19.2422 162.473 19.1624 162.564 19.0713C162.655 18.9801 162.746 18.8947 162.838 18.8149C162.94 18.7238 163.031 18.6497 163.111 18.5928C163.202 18.5358 163.293 18.5073 163.384 18.5073ZM182.747 24.9502C182.519 25.6224 182.274 26.2661 182.012 26.8813C181.762 27.4852 181.471 28.0662 181.141 28.6245C180.822 29.1714 180.451 29.7012 180.03 30.2139C179.608 30.7152 179.118 31.2051 178.56 31.6836C178.526 32.2305 178.48 32.783 178.423 33.3413C178.366 33.8996 178.304 34.4465 178.235 34.9819C178.053 36.3719 177.82 37.4998 177.535 38.3657C177.25 39.243 176.948 39.9437 176.629 40.4678C176.31 40.9919 175.985 41.3792 175.655 41.6299C175.336 41.8805 175.051 42.0685 174.8 42.1938C174.231 42.4787 173.752 42.6211 173.365 42.6211C172.841 42.6211 172.436 42.359 172.151 41.835C171.867 41.3109 171.724 40.633 171.724 39.8013C171.724 39.0151 171.855 38.2746 172.117 37.5796C172.379 36.8846 172.715 36.2295 173.126 35.6143C173.547 34.999 174.014 34.4237 174.527 33.8882C175.051 33.3641 175.575 32.8799 176.099 32.4355C176.133 32.0026 176.156 31.5981 176.168 31.2222C176.19 30.8462 176.213 30.5272 176.236 30.2651C176.27 29.5929 176.293 28.8866 176.304 28.146C176.316 27.394 176.333 26.6991 176.356 26.061C176.094 27.0636 175.832 27.8953 175.569 28.5562C175.307 29.217 175.04 29.741 174.766 30.1284C174.504 30.5158 174.231 30.7892 173.946 30.9487C173.661 31.1082 173.359 31.188 173.04 31.188C172.812 31.188 172.579 31.1253 172.339 31C172.1 30.8633 171.878 30.6183 171.673 30.2651C171.479 29.9006 171.32 29.3993 171.194 28.7612C171.069 28.1118 171.006 27.2801 171.006 26.2661C171.006 25.856 171.018 25.4401 171.041 25.0186C171.075 24.5856 171.12 24.1698 171.177 23.771C171.234 23.3608 171.297 22.9792 171.365 22.626C171.434 22.2614 171.513 21.9424 171.605 21.6689C171.65 21.5322 171.707 21.4297 171.776 21.3613C171.844 21.2816 171.901 21.2132 171.946 21.1562C172.003 21.0879 172.049 21.0309 172.083 20.9854C172.129 20.9284 172.18 20.8999 172.237 20.8999C172.328 20.8999 172.391 20.9341 172.425 21.0024C172.459 21.0594 172.522 21.0879 172.613 21.0879C172.647 21.0879 172.71 21.0651 172.801 21.0195C172.892 20.9626 172.989 20.8999 173.091 20.8315C173.194 20.7632 173.297 20.7062 173.399 20.6606C173.502 20.6037 173.587 20.5752 173.655 20.5752C173.781 20.5752 173.843 20.6777 173.843 20.8828C173.843 20.9626 173.832 21.0537 173.809 21.1562C173.798 21.2588 173.781 21.3784 173.758 21.5151C173.644 22.0392 173.57 22.5918 173.536 23.1729C173.513 23.7425 173.502 24.4033 173.502 25.1553C173.502 25.668 173.502 26.1408 173.502 26.5737C173.513 26.9953 173.541 27.3599 173.587 27.6675C173.633 27.9751 173.701 28.2144 173.792 28.3853C173.895 28.5562 174.031 28.6416 174.202 28.6416C174.407 28.6416 174.595 28.4935 174.766 28.1973C174.949 27.901 175.119 27.5251 175.279 27.0693C175.438 26.6022 175.592 26.0838 175.74 25.5142C175.888 24.9445 176.037 24.3862 176.185 23.8394C176.333 23.2811 176.475 22.7684 176.612 22.3013C176.76 21.8228 176.914 21.4468 177.073 21.1733C177.199 20.9683 177.392 20.7917 177.654 20.6436C177.928 20.4954 178.167 20.4214 178.372 20.4214C178.486 20.4214 178.583 20.4385 178.663 20.4727C178.742 20.4954 178.811 20.5524 178.868 20.6436C178.925 20.7233 178.965 20.8486 178.987 21.0195C179.022 21.179 179.039 21.3955 179.039 21.6689C179.039 22.1361 179.027 22.6488 179.005 23.207C178.993 23.7539 178.976 24.2894 178.953 24.8135C178.93 25.3262 178.908 25.7876 178.885 26.1978C178.862 26.6079 178.845 26.9041 178.834 27.0864C178.811 27.3485 178.782 27.7814 178.748 28.3853C178.725 28.9777 178.691 29.6613 178.646 30.436C179.067 30.0828 179.437 29.7126 179.756 29.3252C180.087 28.9264 180.383 28.5049 180.645 28.0605C180.907 27.6048 181.152 27.1206 181.38 26.6079C181.608 26.0952 181.83 25.5426 182.047 24.9502C182.172 24.6426 182.343 24.4888 182.559 24.4888C182.719 24.4888 182.798 24.5685 182.798 24.728C182.798 24.7622 182.793 24.8021 182.781 24.8477C182.77 24.8932 182.759 24.9274 182.747 24.9502ZM175.74 35.4434C175.775 35.2383 175.809 35.0275 175.843 34.811C175.877 34.5946 175.906 34.3724 175.928 34.1445C175.609 34.5205 175.313 34.9193 175.04 35.3408C174.778 35.7624 174.55 36.2181 174.356 36.708C174.174 37.2093 174.026 37.7448 173.912 38.3145C173.809 38.8955 173.758 39.5278 173.758 40.2114C173.758 40.5988 173.786 40.8722 173.843 41.0317C173.912 41.1912 173.98 41.271 174.048 41.271C174.162 41.271 174.282 41.1628 174.407 40.9463C174.533 40.7298 174.647 40.4507 174.749 40.1089C174.863 39.7671 174.971 39.3797 175.074 38.9468C175.176 38.5252 175.268 38.098 175.347 37.665C175.438 37.2321 175.518 36.8162 175.587 36.4175C175.655 36.0301 175.706 35.7054 175.74 35.4434Z" fill="black"/>
</svg>
