<svg width="58" height="40" viewBox="0 0 58 40" fill="none" xmlns="http://www.w3.org/2000/svg">
<g clip-path="url(#clip0_31_1692)">
<path d="M22.6678 9.33552C25.2112 9.33552 27.273 7.27368 27.273 4.73026C27.273 2.18685 25.2112 0.125 22.6678 0.125C20.1243 0.125 18.0625 2.18685 18.0625 4.73026C18.0625 7.27368 20.1243 9.33552 22.6678 9.33552Z" fill="#172430"/>
<path d="M39.9376 17.3949C39.9376 19.9382 37.8757 22.0001 35.3324 22.0001C32.7889 22.0001 30.7271 19.9382 30.7271 17.3949C30.7271 14.8514 32.7889 12.7896 35.3324 12.7896C37.8757 12.7896 39.9376 14.8514 39.9376 17.3949Z" fill="#088DB2"/>
<path d="M22.6678 22.0001C25.2112 22.0001 27.273 19.9382 27.273 17.3948C27.273 14.8514 25.2112 12.7896 22.6678 12.7896C20.1243 12.7896 18.0625 14.8514 18.0625 17.3948C18.0625 19.9382 20.1243 22.0001 22.6678 22.0001Z" fill="#088DB2"/>
<path d="M35.3323 9.33552C37.8757 9.33552 39.9376 7.27368 39.9376 4.73026C39.9376 2.18685 37.8757 0.125 35.3323 0.125C32.7889 0.125 30.7271 2.18685 30.7271 4.73026C30.7271 7.27368 32.7889 9.33552 35.3323 9.33552Z" fill="#32B8B2"/>
<path d="M27.1539 16.0842C27.1539 16.0842 27.6577 16.6155 29.1687 16.6155C30.6798 16.6155 31.4713 14.9329 31.4713 14.9329L33.0807 21.3964C30.3269 20.0085 27.8928 19.7441 25.1392 21.2651L27.1539 16.0842Z" fill="#088DB2"/>
<path d="M22.092 12.7894C22.092 12.7894 26.5209 11.8276 28.4243 9.9111C30.3277 7.9946 30.7269 4.73022 30.7269 4.73022L35.3322 9.33547C35.3322 9.33547 32.0546 10.2972 30.1512 12.2137C28.2479 14.1302 27.273 16.819 27.273 16.819L22.092 12.7894Z" fill="url(#paint0_linear_31_1692)"/>
<path d="M9.23115 37.75V39.625H0.587402V38.1437L6.08115 31.4875H0.699902V29.6125H9.08115V31.0938L3.56865 37.75H9.23115ZM21.4076 34.675C21.4076 34.8375 21.3951 35.0688 21.3701 35.3688H13.5139C13.6514 36.1063 14.0076 36.6937 14.5826 37.1312C15.1701 37.5562 15.8951 37.7687 16.7576 37.7687C17.8576 37.7687 18.7639 37.4063 19.4764 36.6813L20.7326 38.125C20.2826 38.6625 19.7139 39.0687 19.0264 39.3438C18.3389 39.6188 17.5639 39.7562 16.7014 39.7562C15.6014 39.7562 14.6326 39.5375 13.7951 39.1C12.9576 38.6625 12.3076 38.0562 11.8451 37.2812C11.3951 36.4937 11.1701 35.6063 11.1701 34.6188C11.1701 33.6438 11.3889 32.7688 11.8264 31.9938C12.2764 31.2063 12.8951 30.5938 13.6826 30.1562C14.4701 29.7188 15.3576 29.5 16.3451 29.5C17.3201 29.5 18.1889 29.7188 18.9514 30.1562C19.7264 30.5813 20.3264 31.1875 20.7514 31.975C21.1889 32.75 21.4076 33.65 21.4076 34.675ZM16.3451 31.375C15.5951 31.375 14.9576 31.6 14.4326 32.05C13.9201 32.4875 13.6076 33.075 13.4951 33.8125H19.1764C19.0764 33.0875 18.7701 32.5 18.2576 32.05C17.7451 31.6 17.1076 31.375 16.3451 31.375ZM33.8215 34.675C33.8215 34.8375 33.809 35.0688 33.784 35.3688H25.9277C26.0652 36.1063 26.4215 36.6937 26.9965 37.1312C27.584 37.5562 28.309 37.7687 29.1715 37.7687C30.2715 37.7687 31.1777 37.4063 31.8902 36.6813L33.1465 38.125C32.6965 38.6625 32.1277 39.0687 31.4402 39.3438C30.7527 39.6188 29.9777 39.7562 29.1152 39.7562C28.0152 39.7562 27.0465 39.5375 26.209 39.1C25.3715 38.6625 24.7215 38.0562 24.259 37.2812C23.809 36.4937 23.584 35.6063 23.584 34.6188C23.584 33.6438 23.8027 32.7688 24.2402 31.9938C24.6902 31.2063 25.309 30.5938 26.0965 30.1562C26.884 29.7188 27.7715 29.5 28.759 29.5C29.734 29.5 30.6027 29.7188 31.3652 30.1562C32.1402 30.5813 32.7402 31.1875 33.1652 31.975C33.6027 32.75 33.8215 33.65 33.8215 34.675ZM28.759 31.375C28.009 31.375 27.3715 31.6 26.8465 32.05C26.334 32.4875 26.0215 33.075 25.909 33.8125H31.5902C31.4902 33.0875 31.184 32.5 30.6715 32.05C30.159 31.6 29.5215 31.375 28.759 31.375ZM46.0147 29.6125L41.721 39.625H39.3022L35.0085 29.6125H37.446L40.5585 37.0375L43.7647 29.6125H46.0147ZM57.3674 34.675C57.3674 34.8375 57.3549 35.0688 57.3299 35.3688H49.4736C49.6111 36.1063 49.9674 36.6937 50.5424 37.1312C51.1299 37.5562 51.8549 37.7687 52.7174 37.7687C53.8174 37.7687 54.7236 37.4063 55.4361 36.6813L56.6924 38.125C56.2424 38.6625 55.6736 39.0687 54.9861 39.3438C54.2986 39.6188 53.5236 39.7562 52.6611 39.7562C51.5611 39.7562 50.5924 39.5375 49.7549 39.1C48.9174 38.6625 48.2674 38.0562 47.8049 37.2812C47.3549 36.4937 47.1299 35.6063 47.1299 34.6188C47.1299 33.6438 47.3486 32.7688 47.7861 31.9938C48.2361 31.2063 48.8549 30.5938 49.6424 30.1562C50.4299 29.7188 51.3174 29.5 52.3049 29.5C53.2799 29.5 54.1486 29.7188 54.9111 30.1562C55.6861 30.5813 56.2861 31.1875 56.7111 31.975C57.1486 32.75 57.3674 33.65 57.3674 34.675ZM52.3049 31.375C51.5549 31.375 50.9174 31.6 50.3924 32.05C49.8799 32.4875 49.5674 33.075 49.4549 33.8125H55.1361C55.0361 33.0875 54.7299 32.5 54.2174 32.05C53.7049 31.6 53.0674 31.375 52.3049 31.375Z" fill="#19222C"/>
</g>
<defs>
<linearGradient id="paint0_linear_31_1692" x1="32.4539" y1="7.03285" x2="26.1217" y2="13.3651" gradientUnits="userSpaceOnUse">
<stop stop-color="#32B8B2"/>
<stop offset="1" stop-color="#088DB2"/>
</linearGradient>
<clipPath id="clip0_31_1692">
<rect width="58" height="40" fill="white"/>
</clipPath>
</defs>
</svg>
