<svg width="64" height="64" viewBox="0 0 64 64" fill="none" xmlns="http://www.w3.org/2000/svg">
<path d="M25.6678 21.3355C28.2112 21.3355 30.273 19.2737 30.273 16.7303C30.273 14.1868 28.2112 12.125 25.6678 12.125C23.1243 12.125 21.0625 14.1868 21.0625 16.7303C21.0625 19.2737 23.1243 21.3355 25.6678 21.3355Z" fill="black"/>
<path d="M42.9375 29.3949C42.9375 31.9382 40.8756 34.0001 38.3322 34.0001C35.7888 34.0001 33.7269 31.9382 33.7269 29.3949C33.7269 26.8514 35.7888 24.7896 38.3322 24.7896C40.8756 24.7896 42.9375 26.8514 42.9375 29.3949Z" fill="black"/>
<path d="M25.6678 34.0001C28.2112 34.0001 30.273 31.9382 30.273 29.3948C30.273 26.8514 28.2112 24.7896 25.6678 24.7896C23.1243 24.7896 21.0625 26.8514 21.0625 29.3948C21.0625 31.9382 23.1243 34.0001 25.6678 34.0001Z" fill="black"/>
<path d="M38.3322 21.3355C40.8756 21.3355 42.9375 19.2737 42.9375 16.7303C42.9375 14.1868 40.8756 12.125 38.3322 12.125C35.7888 12.125 33.7269 14.1868 33.7269 16.7303C33.7269 19.2737 35.7888 21.3355 38.3322 21.3355Z" fill="black"/>
<path d="M30.154 28.0842C30.154 28.0842 30.6578 28.6155 32.1688 28.6155C33.68 28.6155 34.4715 26.9329 34.4715 26.9329L36.0808 33.3964C33.327 32.0085 30.893 31.7441 28.1393 33.2651L30.154 28.0842Z" fill="black"/>
<path d="M25.0922 24.7894C25.0922 24.7894 29.521 23.8276 31.4244 21.9111C33.3278 19.9946 33.727 16.7302 33.727 16.7302L38.3323 21.3355C38.3323 21.3355 35.0547 22.2972 33.1514 24.2137C31.248 26.1302 30.2731 28.819 30.2731 28.819L25.0922 24.7894Z" fill="black"/>
<path d="M12.2313 49.75V51.625H3.58752V50.1437L9.08127 43.4875H3.70002V41.6125H12.0813V43.0938L6.56877 49.75H12.2313ZM24.4078 46.675C24.4078 46.8375 24.3953 47.0688 24.3703 47.3688H16.514C16.6515 48.1063 17.0078 48.6937 17.5828 49.1312C18.1703 49.5562 18.8953 49.7687 19.7578 49.7687C20.8578 49.7687 21.764 49.4063 22.4765 48.6813L23.7328 50.125C23.2828 50.6625 22.714 51.0687 22.0265 51.3438C21.339 51.6188 20.564 51.7562 19.7015 51.7562C18.6015 51.7562 17.6328 51.5375 16.7953 51.1C15.9578 50.6625 15.3078 50.0562 14.8453 49.2812C14.3953 48.4937 14.1703 47.6063 14.1703 46.6188C14.1703 45.6438 14.389 44.7688 14.8265 43.9938C15.2765 43.2063 15.8953 42.5938 16.6828 42.1562C17.4703 41.7188 18.3578 41.5 19.3453 41.5C20.3203 41.5 21.189 41.7188 21.9515 42.1562C22.7265 42.5813 23.3265 43.1875 23.7515 43.975C24.189 44.75 24.4078 45.65 24.4078 46.675ZM19.3453 43.375C18.5953 43.375 17.9578 43.6 17.4328 44.05C16.9203 44.4875 16.6078 45.075 16.4953 45.8125H22.1765C22.0765 45.0875 21.7703 44.5 21.2578 44.05C20.7453 43.6 20.1078 43.375 19.3453 43.375ZM36.8216 46.675C36.8216 46.8375 36.8091 47.0688 36.7841 47.3688H28.9278C29.0653 48.1063 29.4216 48.6937 29.9966 49.1312C30.5841 49.5562 31.3091 49.7687 32.1716 49.7687C33.2716 49.7687 34.1778 49.4063 34.8903 48.6813L36.1466 50.125C35.6966 50.6625 35.1278 51.0687 34.4403 51.3438C33.7528 51.6188 32.9778 51.7562 32.1153 51.7562C31.0153 51.7562 30.0466 51.5375 29.2091 51.1C28.3716 50.6625 27.7216 50.0562 27.2591 49.2812C26.8091 48.4937 26.5841 47.6063 26.5841 46.6188C26.5841 45.6438 26.8028 44.7688 27.2403 43.9938C27.6903 43.2063 28.3091 42.5938 29.0966 42.1562C29.8841 41.7188 30.7716 41.5 31.7591 41.5C32.7341 41.5 33.6028 41.7188 34.3653 42.1562C35.1403 42.5813 35.7403 43.1875 36.1653 43.975C36.6028 44.75 36.8216 45.65 36.8216 46.675ZM31.7591 43.375C31.0091 43.375 30.3716 43.6 29.8466 44.05C29.3341 44.4875 29.0216 45.075 28.9091 45.8125H34.5903C34.4903 45.0875 34.1841 44.5 33.6716 44.05C33.1591 43.6 32.5216 43.375 31.7591 43.375ZM49.0148 41.6125L44.7211 51.625H42.3023L38.0086 41.6125H40.4461L43.5586 49.0375L46.7648 41.6125H49.0148ZM60.3675 46.675C60.3675 46.8375 60.355 47.0688 60.33 47.3688H52.4738C52.6113 48.1063 52.9675 48.6937 53.5425 49.1312C54.13 49.5562 54.855 49.7687 55.7175 49.7687C56.8175 49.7687 57.7238 49.4063 58.4363 48.6813L59.6925 50.125C59.2425 50.6625 58.6738 51.0687 57.9863 51.3438C57.2988 51.6188 56.5238 51.7562 55.6613 51.7562C54.5613 51.7562 53.5925 51.5375 52.755 51.1C51.9175 50.6625 51.2675 50.0562 50.805 49.2812C50.355 48.4937 50.13 47.6063 50.13 46.6188C50.13 45.6438 50.3488 44.7688 50.7863 43.9938C51.2363 43.2063 51.855 42.5938 52.6425 42.1562C53.43 41.7188 54.3175 41.5 55.305 41.5C56.28 41.5 57.1488 41.7188 57.9113 42.1562C58.6863 42.5813 59.2863 43.1875 59.7113 43.975C60.1488 44.75 60.3675 45.65 60.3675 46.675ZM55.305 43.375C54.555 43.375 53.9175 43.6 53.3925 44.05C52.88 44.4875 52.5675 45.075 52.455 45.8125H58.1363C58.0363 45.0875 57.73 44.5 57.2175 44.05C56.705 43.6 56.0675 43.375 55.305 43.375Z" fill="black"/>
</svg>
