<svg width="20" height="20" viewBox="0 0 20 20" fill="none" xmlns="http://www.w3.org/2000/svg">
<path d="M10.8333 17.5H7.5V7.5H10.8333V9.16667C11.1842 8.72022 11.6296 8.35697 12.1375 8.10297C12.6453 7.84896 13.2031 7.71049 13.7708 7.6975C14.7637 7.70301 15.7138 8.10202 16.4129 8.80703C17.1119 9.51203 17.5029 10.4655 17.5 11.4583V17.5H14.1667V11.875C14.1022 11.4246 13.8772 11.0127 13.5332 10.7151C13.1891 10.4174 12.7491 10.254 12.2942 10.255C12.0905 10.2614 11.8903 10.3089 11.7055 10.3947C11.5207 10.4804 11.3551 10.6026 11.2187 10.7539C11.0823 10.9051 10.9778 11.0824 10.9116 11.2751C10.8454 11.4678 10.8188 11.6718 10.8333 11.875V17.5ZM5.83333 17.5H2.5V7.5H5.83333V17.5ZM4.16667 5.83333C3.72464 5.83333 3.30072 5.65774 2.98816 5.34518C2.67559 5.03262 2.5 4.60869 2.5 4.16667C2.5 3.72464 2.67559 3.30072 2.98816 2.98816C3.30072 2.67559 3.72464 2.5 4.16667 2.5C4.60869 2.5 5.03262 2.67559 5.34518 2.98816C5.65774 3.30072 5.83333 3.72464 5.83333 4.16667C5.83333 4.60869 5.65774 5.03262 5.34518 5.34518C5.03262 5.65774 4.60869 5.83333 4.16667 5.83333Z" fill="black"/>
</svg>
