<svg width="20" height="20" viewBox="0 0 20 20" fill="none" xmlns="http://www.w3.org/2000/svg">
<path d="M18.9525 9.79891C18.9525 8.66131 18.0265 7.73611 16.8895 7.73611C16.3969 7.73611 15.9361 7.91631 15.5643 8.23151C15.5523 8.23891 15.5399 8.24591 15.5281 8.25351C14.1867 7.39531 12.4079 6.84731 10.4403 6.77291L11.6147 3.43331L14.5459 4.13411C14.5483 5.06071 15.3021 5.81411 16.2299 5.81411C17.1583 5.81411 17.9143 5.05871 17.9143 4.12991C17.9143 3.20071 17.1583 2.44531 16.2299 2.44531C15.5241 2.44531 14.9211 2.88171 14.6711 3.49731L11.1983 2.66731L9.75605 6.76531C7.70425 6.80391 5.84485 7.35911 4.45345 8.24611C4.07885 7.92111 3.61145 7.73591 3.10985 7.73591C1.97245 7.73591 1.04785 8.66131 1.04785 9.79871C1.04785 10.5023 1.41085 11.1523 1.99905 11.5307C1.96149 11.7368 1.94189 11.9458 1.94045 12.1553C1.94045 15.1325 5.54905 17.5547 9.98425 17.5547C14.4203 17.5547 18.0291 15.1325 18.0291 12.1553C18.028 11.9518 18.0098 11.7488 17.9747 11.5483C18.5787 11.1727 18.9525 10.5133 18.9525 9.79891V9.79891ZM12.7197 12.4695C12.5532 12.4695 12.3884 12.4368 12.2347 12.3731C12.0809 12.3094 11.9412 12.216 11.8235 12.0983C11.7059 11.9805 11.6126 11.8408 11.549 11.687C11.4854 11.5332 11.4527 11.3683 11.4529 11.2019C11.4529 10.9512 11.5273 10.7062 11.6666 10.4978C11.8059 10.2894 12.0039 10.127 12.2355 10.0311C12.4671 9.93519 12.722 9.91016 12.9679 9.95913C13.2137 10.0081 13.4395 10.1289 13.6167 10.3062C13.7939 10.4835 13.9146 10.7094 13.9634 10.9553C14.0122 11.2012 13.987 11.456 13.891 11.6876C13.795 11.9192 13.6324 12.117 13.4239 12.2562C13.2154 12.3954 12.9703 12.4696 12.7197 12.4695ZM12.9719 14.6307C12.9339 14.6695 12.0253 15.5949 9.97005 15.5949C7.90345 15.5949 7.07745 14.6571 7.04285 14.6167C6.98722 14.5514 6.95973 14.4666 6.9664 14.3811C6.97307 14.2955 7.01336 14.2161 7.07845 14.1601C7.1436 14.1048 7.22784 14.0774 7.31304 14.0836C7.39824 14.0898 7.47761 14.1292 7.53405 14.1933C7.55245 14.2141 8.24205 14.9475 9.97005 14.9475C11.7269 14.9475 12.4979 14.1879 12.5061 14.1805C12.5663 14.1212 12.6473 14.0877 12.7319 14.0873C12.8164 14.087 12.8978 14.1196 12.9586 14.1784C13.0194 14.2371 13.0548 14.3173 13.0573 14.4018C13.0598 14.4864 13.0291 14.5685 12.9719 14.6307V14.6307ZM6.16185 11.2019C6.15894 11.0336 6.18959 10.8664 6.252 10.7101C6.31442 10.5537 6.40735 10.4114 6.52537 10.2914C6.6434 10.1714 6.78415 10.076 6.93941 10.011C7.09467 9.94598 7.26133 9.91253 7.42966 9.9126C7.59799 9.91268 7.76462 9.9463 7.91982 10.0115C8.07502 10.0767 8.21568 10.1721 8.33359 10.2922C8.4515 10.4124 8.5443 10.5548 8.60657 10.7112C8.66883 10.8676 8.69932 11.0348 8.69625 11.2031C8.6902 11.5353 8.55394 11.8518 8.31683 12.0845C8.07971 12.3173 7.7607 12.4476 7.42846 12.4474C7.09623 12.4472 6.77733 12.3166 6.54044 12.0837C6.30355 11.8507 6.16759 11.5341 6.16185 11.2019V11.2019Z" fill="black"/>
</svg>
